PathFileType	4	(X/Y/Z)	C:/Users/beibeiliu/ov580/test_trc\sequence.36_training_dense_left.trc
DataRate	CameraRate	NumFrames	NumMarkers	Units	OrigDataRate	OrigDataStartFrame	OrigNumFrames
120	120	8	19	mm	120	28	165
Frame#	Time	ThumbCMC			ThumbMCP			ThumbIP			ThumbTip			IndexMCP			IndexPIP			IndexTip			MiddleMCP			MiddlePIP			MiddleTip			RingMCP			RingPIP			RingTip			PinkyMCP			PinkyPIP			PinkyTip			BackHand1			BackHand2			BackHand3	
		X0	Y0	Z0	X1	Y1	Z1	X2	Y2	Z2	X3	Y3	Z3	X4	Y4	Z4	X5	Y5	Z5	X6	Y6	Z6	X7	Y7	Z7	X8	Y8	Z8	X9	Y9	Z9	X10	Y10	Z10	X11	Y11	Z11	X12	Y12	Z12	X13	Y13	Z13	X14	Y14	Z14	X15	Y15	Z15	X16	Y16	Z16	X17	Y17	Z17	X18	Y18	Z18	
27	0.225	-176.981	110.452	50.7845	-183.462	121.885	21.3159	-187.264	112.706	-5.35301	-180.138	104.02	-26.3018	-202.937	71.1983	6.86944	-209.583	70.3093	-23.2177	-196.485	77.3012	-43.6977	-191.565	54.4994	-1.90686	-185.447	54.7231	-30.2377	-170.053	81.7344	-43.6815	-171.325	43.9468	7.38202	-171.634	45.0717	-23.0794	-163.584	60.2093	-38.3708	-148.855	40.7121	19.0959	-153.016	34.034	-0.964968	-150.489	40.2615	-25.2218	-163.246	62.7564	48.574	-152.749	70.0594	72.0808	-179.814	78.2274	57.042	
28	0.233333	-176.881	121.259	49.3317	-175.936	129.891	23.4844	-180.634	127.287	-1.93734	-177.645	119.125	-22.6122	-214.553	90.3858	5.94714	-219.357	90.8846	-19.5532	-205.188	101.597	-45.5514	-204.932	72.1546	2.10094	-206.014	72.4051	-30.9108	-186.74	85.9975	-45.2634	-190.568	56.6055	3.1997	-195.128	58.7895	-23.9016	-184.999	72.4425	-40.3799	-169.457	49.5619	14.2152	-173.384	40.7334	-9.12068	-172.818	48.0917	-31.4241	-173.105	64.1187	43.2925	-160.647	73.2862	70.0675	-184.241	87.4998	59.4657	
29	0.241667	-173.66	124.757	52.3529	-175.641	134.316	22.8209	-179.799	140.699	-0.830788	-178.318	130.057	-24.7363	-220.794	105.862	9.01365	-228.466	113.052	-17.6892	-213.956	124.97	-41.0979	-218.602	82.018	1.10982	-222.315	86.8454	-28.3109	-200.888	102.866	-47.4412	-206.805	69.4013	3.45603	-212.861	71.7709	-22.7222	-201.14	81.8914	-42.2437	-188.361	58.6316	10.4852	-197.999	51.155	-11.8585	-197.601	60.5512	-33.0522	-184.54	74.5837	44.4154	-171.729	75.0723	63.9888	-191.073	95.0831	59.3753	
30	0.25	-179.672	118.012	49.8371	-177.044	135.571	22.1056	-179.102	135.041	1.56263	-182.926	127.255	-23.3584	-230.444	124.096	8.3428	-232.841	127.381	-14.9868	-214.966	135.097	-40.5022	-231.339	95.5759	4.23109	-238.682	101.814	-26.3781	-218.95	109.789	-46.3801	-227.483	78.8947	3.97543	-233.192	83.2438	-23.3338	-221.263	98.1708	-40.4704	-211.239	61.5318	8.08516	-221.731	59.2964	-10.216	-222.494	69.9471	-36.1202	-204.049	71.0725	39.9198	-187.696	68.8826	62.0679	-202.335	94.4062	57.7528	
31	0.258333	-179.488	108.01	50.5908	-171.382	123.337	20.7479	-176.943	124.197	0.523628	-181.8	121.953	-25.9088	-227.518	129.422	6.8062	-225.815	139.617	-15.3386	-209.079	140.436	-38.6973	-241.766	110.367	3.39321	-245.925	118.347	-23.7909	-228.732	122.078	-48.4345	-239.411	86.3889	5.82731	-248.731	96.8349	-15.3092	-237.973	105.462	-39.5873	-229.848	65.0004	10.1403	-246.465	69.2027	-9.62437	-247.079	78.2828	-28.022	-220.001	73.8982	40.6213	-204.879	66.6123	61.9872	-208.865	98.3166	56.6551	
32	0.266667	-181.788	87.7275	44.9457	-171.141	94.29	16.655	-173.42	98.2571	-7.52815	-184.505	94.7728	-28.7143	-215.107	123.772	6.62047	-214.702	130.013	-22.0393	-203.441	122.785	-45.4466	-239.794	109.632	3.67619	-247.538	121.569	-22.4443	-235.761	119.907	-50.2938	-246.667	93.8608	8.8054	-257.484	104.514	-11.5703	-252.003	109.707	-36.3064	-249.91	68.3918	11.8149	-261.354	82.5315	-2.79214	-264.717	90.3247	-25.0743	-234.33	73.3154	39.4185	-221.793	62.0051	61.7882	-214.925	86.0816	53.1899	
33	0.275	-179.495	67.7878	41.7679	-169.769	66.6417	10.852	-174.174	68.4125	-15.5985	-181.39	65.4983	-32.1955	-205.257	105.522	-5.6365	-202.759	108.743	-32.6851	-195.221	96.4485	-55.5734	-229.716	106.417	-5.60092	-235.736	115.473	-29.1241	-233.563	113.134	-56.1318	-243.987	94.5188	3.61774	-252.303	105.644	-13.8817	-253.901	112.478	-39.274	-257.502	74.4014	12.384	-264.023	87.3812	-1.18155	-274.407	96.4057	-16.0032	-233.775	75.3401	37.1268	-229.963	64.9954	58.1565	-213.29	82.5602	48.5446	
34	0.283333	-179.639	53.3522	40.4509	-166.464	44.6069	12.8662	-168.51	44.5597	-10.2449	-174.276	43.4581	-32.1873	-191.23	87.3596	-12.9848	-189.67	83.6435	-43.5173	-188.097	73.2191	-60.8406	-217.604	95.8759	-15.4141	-222.632	101.858	-40.6322	-223.24	100.2	-68.5155	-237.748	87.5165	-1.34913	-240.596	102.658	-21.313	-246.828	110.763	-42.2869	-250.78	69.3906	11.5284	-260.184	87.5153	-2.0626	-267.639	100.308	-14.4983	-228.268	72.9664	33.1997	-227.12	63.3949	59.1068	-207.29	75.9265	43.0849	
